# Blender v2.74 (sub 0) OBJ File: 'untitled.blend'
# www.blender.org
mtllib mushroom.mtl
o Cylinder
v 0.586965 0.000000 -0.807888
v 0.000000 5.417968 0.000000
v 0.032412 2.217565 -0.887751
v -0.000000 5.217565 -1.127797
v 0.548029 2.217565 -0.720217
v 0.662903 5.217565 -0.912407
v 0.866697 2.217565 -0.281607
v 1.072599 5.217565 -0.348509
v 0.866697 2.217565 0.260544
v 1.072599 5.217565 0.348509
v 0.548029 2.217565 0.699154
v 0.662903 5.217565 0.912407
v 0.032412 2.217565 0.866688
v -0.000000 5.217565 1.127797
v -0.483204 2.217565 0.699154
v -0.662903 5.217565 0.912407
v -0.801873 2.217565 0.260544
v -1.072599 5.217565 0.348509
v -0.801873 2.217565 -0.281607
v -1.072599 5.217565 -0.348509
v -0.483204 2.217565 -0.720217
v -0.662902 5.217565 -0.912408
v 0.000000 4.899453 -1.500000
v 0.881678 4.899453 -1.213525
v 1.426585 4.899453 -0.463525
v 1.426585 4.899453 0.463526
v 0.881678 4.899453 1.213526
v -0.000000 4.899453 1.500000
v -0.881678 4.899453 1.213525
v -1.426585 4.899453 0.463526
v -1.426585 4.899453 -0.463526
v -0.881677 4.899453 -1.213526
v 1.515706 2.391757 -2.086191
v 2.452464 2.391757 -0.796854
v 2.452464 2.391757 0.796854
v 1.515706 2.391757 2.086191
v -0.000000 2.391757 2.578673
v -1.515707 2.391757 2.086190
v -2.452464 2.391757 0.796854
v -2.452464 2.391757 -0.796854
v -1.515705 2.391757 -2.086191
v 0.000000 2.391757 -2.578673
v 0.000000 3.351811 -2.455936
v 1.443563 3.351811 -1.986894
v 2.335734 3.351811 -0.758926
v 2.335734 3.351811 0.758926
v 1.443563 3.351811 1.986894
v -0.000000 3.351811 2.455936
v -1.443563 3.351811 1.986894
v -2.335734 3.351811 0.758926
v -2.335734 3.351811 -0.758926
v -1.443562 3.351811 -1.986895
v 1.970539 1.148915 0.658786
v 1.311325 1.307260 0.785353
v 0.999723 1.171853 1.117162
v 0.735967 0.189608 -1.012972
v -0.000000 0.189608 -1.252102
v 1.190820 0.189608 -0.386921
v 1.190819 0.189608 0.386921
v 0.735967 0.189608 1.012972
v -0.000000 0.189608 1.252102
v -0.735967 0.189608 1.012971
v -1.190819 0.189608 0.386921
v -1.190819 0.189608 -0.386921
v -0.735967 0.189608 -1.012972
v -0.000000 0.000000 -0.000000
v -0.000000 0.000000 -0.998604
v 0.949729 0.000000 -0.308586
v 0.949729 0.000000 0.308586
v 0.586965 0.000000 0.807888
v -0.000000 0.000000 0.998604
v -0.586965 0.000000 0.807887
v -0.949729 0.000000 0.308586
v -0.949729 0.000000 -0.308586
v -0.586964 0.000000 -0.807888
v 2.173904 3.035723 0.009836
v 0.866697 2.217565 -0.281607
v 1.072599 5.217565 -0.348509
v 1.426585 4.899453 -0.463525
v 2.452464 2.391757 -0.796854
v 2.335734 3.351811 -0.758926
v 1.190820 0.189608 -0.386921
v 0.949729 0.000000 -0.308586
v -0.008921 4.157720 -2.058428
v 1.202697 4.157720 -1.664750
v 1.951517 4.157720 -0.634086
v 1.951517 4.157720 0.639884
v 1.202696 4.157720 1.670547
v -0.008921 4.157720 2.064225
v -1.220538 4.157720 1.670547
v -1.969358 4.157720 0.639884
v -1.969358 4.157720 -0.634087
v -1.220537 4.157720 -1.664750
v 1.951517 4.157720 -0.634086
v 1.494079 2.679561 -2.056424
v 2.417471 2.679561 -0.785484
v 2.417471 2.679561 0.785484
v 1.494079 2.679561 2.056424
v -0.000000 2.679561 2.541879
v -1.494080 2.679561 2.056423
v -2.417471 2.679561 0.785484
v -2.417471 2.679561 -0.785484
v -1.494078 2.679561 -2.056424
v 0.000000 2.679561 -2.541879
v 2.417471 2.679561 -0.785484
vt 0.239399 0.749980
vt 0.211916 0.761600
vt 0.201061 0.380319
vt 0.782472 0.219414
vt 0.750780 0.232650
vt 0.749053 0.211494
vt 0.735852 0.238300
vt 0.183612 0.792614
vt 0.163388 0.411333
vt 0.764612 0.248751
vt 0.755857 0.262096
vt 0.152245 0.831176
vt 0.125769 0.449895
vt 0.144578 0.430614
vt 0.785266 0.253646
vt 0.774939 0.251198
vt 0.786027 0.269588
vt 0.110920 0.862556
vt 0.086492 0.481275
vt 0.804853 0.245466
vt 0.814840 0.257916
vt 0.434526 0.874768
vt 0.434091 0.493487
vt 0.475501 0.481275
vt 0.815891 0.227335
vt 0.831289 0.231538
vt 0.368496 0.863148
vt 0.392644 0.481866
vt 0.814164 0.206179
vt 0.829092 0.200529
vt 0.326739 0.832133
vt 0.353307 0.450852
vt 0.800332 0.190078
vt 0.295235 0.793572
vt 0.315667 0.412290
vt 0.779678 0.185183
vt 0.809087 0.176733
vt 0.266891 0.762192
vt 0.278012 0.380910
vt 0.760091 0.193363
vt 0.778917 0.169241
vt 0.239544 0.368698
vt 0.733655 0.207291
vt 0.750104 0.180913
vt 0.699310 0.195229
vt 0.729409 0.150967
vt 0.779776 0.132849
vt 0.863967 0.190100
vt 0.865633 0.243600
vt 0.835535 0.287862
vt 0.785168 0.305980
vt 0.759470 0.298506
vt 0.770942 0.265842
vt 0.733772 0.291032
vt 0.700977 0.248729
vt 0.239462 0.716625
vt 0.207089 0.740557
vt 0.174022 0.804430
vt 0.156169 0.844139
vt 0.138316 0.883847
vt 0.096143 0.948474
vt 0.485153 0.948474
vt 0.434237 0.973624
vt 0.383157 0.949692
vt 0.340762 0.885819
vt 0.304945 0.806401
vt 0.271841 0.741775
vt 0.664966 0.183166
vt 0.666101 0.259157
vt 0.636479 0.267816
vt 0.711687 0.319968
vt 0.692811 0.344385
vt 0.747998 0.331169
vt 0.784309 0.342371
vt 0.783391 0.373219
vt 0.856230 0.317808
vt 0.899978 0.255663
vt 0.929032 0.266069
vt 0.898842 0.179671
vt 0.928465 0.171013
vt 0.853257 0.118861
vt 0.872133 0.094444
vt 0.780635 0.096458
vt 0.781553 0.065610
vt 0.708714 0.121021
vt 0.691325 0.095524
vt 0.635912 0.172760
vt 0.199647 0.354949
vt 0.239564 0.345682
vt 0.161122 0.379685
vt 0.123440 0.410439
vt 0.084953 0.435466
vt 0.434069 0.445206
vt 0.394151 0.435938
vt 0.355627 0.411203
vt 0.317944 0.380448
vt 0.279457 0.355421
vt 0.053021 0.395444
vt 0.142281 0.395062
vt 0.442030 0.395444
vt 0.473962 0.435466
vt 0.167928 0.811895
vt 0.831172 0.147797
vt 0.673936 0.368801
vt 0.738101 0.358802
vt 0.606857 0.162354
vt 0.673936 0.070028
vt 0.891008 0.070028
vt 0.958087 0.162354
vt 0.891008 0.368801
vt 0.873619 0.343305
vt 0.728204 0.386434
vt 0.606857 0.276475
vt 0.499930 0.862556
vt 0.782472 0.034762
vt 0.958087 0.276475
vt 0.782472 0.404067
vn 0.304800 0.163700 -0.938200
vn 0.056800 0.983000 -0.174700
vn 0.206600 0.743800 -0.635700
vn 0.798900 0.157800 -0.580400
vn 0.148600 0.983000 -0.108000
vn 0.540800 0.743800 -0.392900
vn 0.987500 0.157800 0.000000
vn 0.183700 0.983000 -0.000000
vn 0.668400 0.743800 0.000000
vn 0.798100 0.163700 0.579900
vn 0.148600 0.983000 0.108000
vn 0.540800 0.743800 0.392900
vn 0.304300 0.173200 0.936700
vn 0.056800 0.983000 0.174700
vn 0.206600 0.743800 0.635700
vn -0.303800 0.182600 0.935100
vn -0.056800 0.983000 0.174700
vn -0.206600 0.743800 0.635700
vn -0.794500 0.188400 0.577300
vn -0.148600 0.983000 0.108000
vn -0.540800 0.743800 0.392900
vn -0.982100 0.188400 0.000000
vn -0.183700 0.983000 0.000000
vn -0.668400 0.743800 0.000000
vn -0.795400 0.182600 -0.577900
vn -0.148600 0.983000 -0.108000
vn -0.540800 0.743800 -0.392900
vn -0.304300 0.173200 -0.936700
vn -0.056800 0.983000 -0.174700
vn -0.206600 0.743800 -0.635700
vn -0.250800 0.584200 -0.771900
vn -0.654300 0.588100 -0.475400
vn -0.807000 0.590500 0.000000
vn -0.652900 0.590500 0.474300
vn -0.249900 0.588100 0.769200
vn 0.250800 0.584200 0.771900
vn 0.658900 0.580200 0.478700
vn 0.816300 0.577700 0.000000
vn 0.660400 0.577700 -0.479800
vn 0.251700 0.580200 -0.774600
vn 0.033500 -0.994100 -0.103100
vn 0.088300 -0.994000 -0.064200
vn 0.109200 -0.994000 -0.000000
vn 0.087700 -0.994100 0.063700
vn 0.033100 -0.994300 0.101800
vn -0.032700 -0.994400 0.100600
vn -0.084900 -0.994500 0.061700
vn -0.105000 -0.994500 0.000000
vn -0.085500 -0.994400 -0.062100
vn -0.033100 -0.994300 -0.101800
vn 0.306800 0.120700 -0.944100
vn 0.803100 0.120700 -0.583500
vn 0.992700 0.120700 0.000000
vn 0.803100 0.120700 0.583500
vn 0.306800 0.120700 0.944100
vn -0.306800 0.120700 0.944100
vn -0.803100 0.120700 0.583500
vn -0.992700 0.120700 0.000000
vn -0.803100 0.120700 -0.583500
vn -0.306800 0.120700 -0.944100
vn 0.191000 -0.786000 -0.587900
vn 0.500100 -0.786000 -0.363400
vn 0.618200 -0.786000 0.000000
vn 0.500100 -0.786000 0.363400
vn 0.191000 -0.786000 0.587900
vn -0.191000 -0.786000 0.587900
vn -0.500100 -0.786000 0.363400
vn -0.618200 -0.786000 0.000000
vn -0.500100 -0.786000 -0.363400
vn -0.191000 -0.786000 -0.587900
vn 0.000000 -1.000000 0.000000
vn 0.000000 0.000000 1.000000
vn 0.279400 0.427200 -0.859900
vn 0.730300 0.430300 -0.530600
vn 0.902700 0.430300 0.000000
vn 0.731500 0.427200 0.531400
vn 0.280100 0.422200 0.862200
vn -0.280900 0.417000 0.864400
vn -0.736500 0.413900 0.535100
vn -0.910300 0.413900 0.000000
vn -0.735300 0.417000 -0.534200
vn -0.280100 0.422200 -0.862200
usemtl mushroom
s off
f 3/1/1 5/2/1 56/3/1
f 2/4/2 6/5/2 4/6/2
f 4/6/3 6/5/3 24/7/3
f 5/2/4 7/8/4 58/9/4
f 2/4/5 8/10/5 6/5/5
f 6/5/6 8/10/6 25/11/6
f 9/12/7 59/13/7 82/14/7
f 2/4/8 10/15/8 78/16/8
f 78/16/9 10/15/9 26/17/9
f 11/18/10 60/19/10 59/13/10
f 2/4/11 12/20/11 10/15/11
f 10/15/12 12/20/12 27/21/12
f 13/22/13 61/23/13 60/24/13
f 2/4/14 14/25/14 12/20/14
f 12/20/15 14/25/15 28/26/15
f 15/27/16 62/28/16 61/23/16
f 2/4/17 16/29/17 14/25/17
f 14/25/18 16/29/18 29/30/18
f 17/31/19 63/32/19 62/28/19
f 2/4/20 18/33/20 16/29/20
f 29/30/21 16/29/21 18/33/21
f 17/31/22 19/34/22 64/35/22
f 2/4/23 20/36/23 18/33/23
f 30/37/24 18/33/24 20/36/24
f 19/34/25 21/38/25 65/39/25
f 2/4/26 22/40/26 20/36/26
f 31/41/27 20/36/27 22/40/27
f 21/38/28 3/1/28 57/42/28
f 2/4/29 4/6/29 22/40/29
f 22/40/30 4/6/30 23/43/30
f 32/44/31 23/43/31 84/45/31
f 31/41/32 32/44/32 93/46/32
f 30/37/33 31/41/33 92/47/33
f 90/48/34 29/30/34 30/37/34
f 89/49/35 28/26/35 29/30/35
f 88/50/36 27/21/36 28/26/36
f 87/51/37 26/17/37 27/21/37
f 94/52/38 79/53/38 26/17/38
f 24/7/39 25/11/39 86/54/39
f 23/43/40 24/7/40 85/55/40
f 3/1/41 42/56/41 33/57/41
f 5/2/42 33/57/42 34/58/42
f 80/59/43 35/60/43 9/12/43
f 35/60/44 36/61/44 11/18/44
f 36/62/45 37/63/45 13/22/45
f 37/63/46 38/64/46 15/27/46
f 38/64/47 39/65/47 17/31/47
f 17/31/48 39/65/48 40/66/48
f 19/34/49 40/66/49 41/67/49
f 21/38/50 41/67/50 42/56/50
f 43/68/51 44/69/51 95/70/51
f 44/69/52 45/71/52 96/72/52
f 81/73/53 46/74/53 97/75/53
f 97/75/54 46/74/54 47/76/54
f 47/76/55 48/77/55 99/78/55
f 48/77/56 49/79/56 100/80/56
f 49/79/57 50/81/57 101/82/57
f 50/81/58 51/83/58 102/84/58
f 51/83/59 52/85/59 103/86/59
f 52/85/60 43/68/60 104/87/60
f 56/3/61 1/88/61 67/89/61
f 58/9/62 68/90/62 1/88/62
f 82/14/63 59/13/63 69/91/63
f 60/19/64 70/92/64 69/91/64
f 60/24/65 61/23/65 71/93/65
f 62/28/66 72/94/66 71/93/66
f 63/32/67 73/95/67 72/94/67
f 64/35/68 74/96/68 73/95/68
f 64/35/69 65/39/69 75/97/69
f 57/42/70 67/89/70 75/97/70
f 66/98/71 67/89/71 1/88/71
f 66/98/71 1/88/71 68/90/71
f 66/98/72 68/90/72 83/99/72
f 66/98/71 69/91/71 70/92/71
f 66/100/71 70/101/71 71/93/71
f 66/100/71 71/93/71 72/94/71
f 66/100/71 72/94/71 73/95/71
f 66/100/71 73/95/71 74/96/71
f 66/100/71 74/96/71 75/97/71
f 66/100/71 75/97/71 67/89/71
f 58/9/72 82/14/72 83/99/72
f 96/72/72 45/71/72 81/73/72
f 7/8/72 34/58/72 80/59/72
f 86/54/72 25/11/72 79/53/72
f 25/11/72 8/10/72 78/16/72
f 7/8/72 77/102/72 82/14/72
f 45/71/72 86/54/72 94/52/72
f 43/68/73 84/45/73 85/55/73
f 44/69/74 85/55/74 86/54/74
f 94/52/75 87/51/75 46/74/75
f 87/51/76 88/50/76 47/76/76
f 88/50/77 89/49/77 48/77/77
f 89/49/78 90/48/78 49/79/78
f 90/48/79 91/103/79 50/81/79
f 50/81/80 91/103/80 92/47/80
f 51/83/81 92/47/81 93/46/81
f 52/85/82 93/46/82 84/45/82
f 34/104/72 96/72/72 105/105/72
f 103/86/60 104/87/60 42/106/60
f 102/84/59 103/86/59 41/107/59
f 39/108/58 101/82/58 102/84/58
f 100/80/57 101/82/57 39/108/57
f 99/78/56 100/80/56 38/109/56
f 36/110/55 98/111/55 99/78/55
f 97/75/54 98/111/54 36/110/54
f 80/112/53 105/105/53 97/75/53
f 33/113/52 95/70/52 96/72/52
f 42/106/51 104/87/51 95/70/51
f 57/42/1 3/1/1 56/3/1
f 23/43/3 4/6/3 24/7/3
f 56/3/4 5/2/4 58/9/4
f 24/7/6 6/5/6 25/11/6
f 77/102/7 9/12/7 82/14/7
f 8/10/72 2/4/72 78/16/72
f 79/53/9 78/16/9 26/17/9
f 9/12/10 11/18/10 59/13/10
f 26/17/12 10/15/12 27/21/12
f 11/114/13 13/22/13 60/24/13
f 27/21/15 12/20/15 28/26/15
f 13/22/16 15/27/16 61/23/16
f 28/26/18 14/25/18 29/30/18
f 15/27/19 17/31/19 62/28/19
f 30/37/21 29/30/21 18/33/21
f 63/32/22 17/31/22 64/35/22
f 31/41/24 30/37/24 20/36/24
f 64/35/25 19/34/25 65/39/25
f 32/44/27 31/41/27 22/40/27
f 65/39/28 21/38/28 57/42/28
f 32/44/30 22/40/30 23/43/30
f 93/46/31 32/44/31 84/45/31
f 92/47/32 31/41/32 93/46/32
f 91/103/33 30/37/33 92/47/33
f 91/103/34 90/48/34 30/37/34
f 90/48/35 89/49/35 29/30/35
f 89/49/36 88/50/36 28/26/36
f 88/50/37 87/51/37 27/21/37
f 87/51/38 94/52/38 26/17/38
f 85/55/39 24/7/39 86/54/39
f 84/45/40 23/43/40 85/55/40
f 5/2/41 3/1/41 33/57/41
f 7/8/42 5/2/42 34/58/42
f 77/102/43 80/59/43 9/12/43
f 9/12/44 35/60/44 11/18/44
f 11/114/45 36/62/45 13/22/45
f 13/22/46 37/63/46 15/27/46
f 15/27/47 38/64/47 17/31/47
f 19/34/48 17/31/48 40/66/48
f 21/38/49 19/34/49 41/67/49
f 3/1/50 21/38/50 42/56/50
f 104/87/51 43/68/51 95/70/51
f 95/70/52 44/69/52 96/72/52
f 105/105/53 81/73/53 97/75/53
f 98/111/54 97/75/54 47/76/54
f 98/111/55 47/76/55 99/78/55
f 99/78/56 48/77/56 100/80/56
f 100/80/57 49/79/57 101/82/57
f 101/82/58 50/81/58 102/84/58
f 102/84/59 51/83/59 103/86/59
f 103/86/60 52/85/60 104/87/60
f 57/42/61 56/3/61 67/89/61
f 56/3/62 58/9/62 1/88/62
f 83/99/63 82/14/63 69/91/63
f 59/13/64 60/19/64 69/91/64
f 70/101/65 60/24/65 71/93/65
f 61/23/66 62/28/66 71/93/66
f 62/28/67 63/32/67 72/94/67
f 63/32/68 64/35/68 73/95/68
f 74/96/69 64/35/69 75/97/69
f 65/39/70 57/42/70 75/97/70
f 69/91/71 66/98/71 83/99/71
f 68/90/72 58/9/72 83/99/72
f 105/105/72 96/72/72 81/73/72
f 77/102/72 7/8/72 80/59/72
f 94/52/72 86/54/72 79/53/72
f 79/53/72 25/11/72 78/16/72
f 58/9/72 7/8/72 82/14/72
f 81/73/72 45/71/72 94/52/72
f 44/69/73 43/68/73 85/55/73
f 45/71/74 44/69/74 86/54/74
f 81/73/75 94/52/75 46/74/75
f 46/74/76 87/51/76 47/76/76
f 47/76/77 88/50/77 48/77/77
f 48/77/78 89/49/78 49/79/78
f 49/79/79 90/48/79 50/81/79
f 51/83/80 50/81/80 92/47/80
f 52/85/81 51/83/81 93/46/81
f 43/68/82 52/85/82 84/45/82
f 80/112/72 34/104/72 105/105/72
f 41/107/60 103/86/60 42/106/60
f 40/115/59 102/84/59 41/107/59
f 40/115/58 39/108/58 102/84/58
f 38/109/57 100/80/57 39/108/57
f 37/116/56 99/78/56 38/109/56
f 37/116/55 36/110/55 99/78/55
f 35/117/54 97/75/54 36/110/54
f 35/117/53 80/112/53 97/75/53
f 34/104/52 33/113/52 96/72/52
f 33/113/51 42/106/51 95/70/51
