# Blender v2.65 (sub 0) OBJ File: 'tree.blend'
# www.blender.org
mtllib tree.mtl
o tree_Cylinder
v 0.000000 -0.163759 -0.305397
v -0.000000 1.836241 -1.949983
v 0.141925 -0.163759 -0.270416
v 0.906202 1.836241 -1.726625
v 0.251337 -0.163759 -0.173485
v 1.604805 1.836241 -1.107717
v 0.303170 -0.163759 -0.036811
v 1.935766 1.836241 -0.235044
v 0.285551 -0.163759 0.108295
v 1.823266 1.836241 0.691474
v 0.202516 -0.163759 0.228593
v 1.293078 1.836241 1.459584
v 0.073086 -0.163759 0.296523
v 0.466662 1.836241 1.893321
v -0.073086 -0.163759 0.296523
v -0.466662 1.836241 1.893321
v -0.202516 -0.163759 0.228593
v -1.293078 1.836241 1.459584
v -0.285551 -0.163759 0.108295
v -1.823266 1.836241 0.691474
v -0.303170 -0.163759 -0.036812
v -1.935766 1.836241 -0.235045
v -0.251337 -0.163759 -0.173485
v -1.604805 1.836241 -1.107717
v -0.141925 -0.163759 -0.270416
v -0.906202 1.836241 -1.726625
v 0.000000 1.731123 -0.305397
v 0.141925 1.731123 -0.270416
v 0.251337 1.731123 -0.173485
v 0.303170 1.731123 -0.036811
v 0.285551 1.731123 0.108295
v 0.202516 1.731123 0.228593
v 0.073086 1.731123 0.296523
v -0.073086 1.731123 0.296523
v -0.202516 1.731123 0.228593
v -0.285551 1.731123 0.108295
v -0.303170 1.731123 -0.036812
v -0.251337 1.731123 -0.173485
v -0.141925 1.731123 -0.270416
v -0.069214 5.539687 -0.047775
v -0.083488 5.539687 -0.010137
v -0.078636 5.539687 0.029823
v -0.055770 5.539687 0.062951
v -0.020127 5.539687 0.081658
v 0.020127 5.539687 0.081658
v 0.055770 5.539687 0.062951
v 0.078636 5.539687 0.029823
v -0.039084 5.539687 -0.074468
v 0.083488 5.539687 -0.010137
v 0.069214 5.539687 -0.047775
v 0.039084 5.539687 -0.074468
v -0.000000 5.539687 -0.084101
vt 0.191537 0.204538
vt 0.025615 0.117156
vt 0.096299 0.037597
vt 0.202607 0.192078
vt 0.195860 0.000000
vt 0.218200 0.186190
vt 0.301488 0.012977
vt 0.234743 0.188222
vt 0.388987 0.073557
vt 0.248446 0.197710
vt 0.438311 0.167859
vt 0.256171 0.212479
vt 0.438160 0.274282
vt 0.256148 0.229147
vt 0.388570 0.368445
vt 0.248381 0.243894
vt 0.300900 0.428776
vt 0.234651 0.253343
vt 0.195235 0.441454
vt 0.218102 0.255328
vt 0.095781 0.403575
vt 0.202526 0.249396
vt 0.025322 0.323817
vt 0.191491 0.236904
vt 0.156651 0.528786
vt 0.241479 0.484182
vt 0.428724 0.916153
vt 0.425065 0.918076
vt 0.187525 0.220716
vt 0.000000 0.220450
vt 0.060327 0.675351
vt 0.071397 0.662891
vt 0.056315 0.691529
vt 0.060281 0.707718
vt 0.086990 0.657003
vt 0.071316 0.720209
vt 0.103533 0.659035
vt 0.086892 0.726141
vt 0.117236 0.668523
vt 0.124961 0.683292
vt 0.103441 0.724156
vt 0.124938 0.699960
vt 0.117171 0.714707
vt 0.103157 0.442472
vt 0.102499 0.657003
vt 0.087743 0.656037
vt 0.088402 0.441505
vt 0.071076 0.655986
vt 0.071734 0.441454
vt 0.056315 0.656861
vt 0.056973 0.442330
vt 0.000658 0.655986
vt 0.000000 0.441454
vt 0.009473 0.443056
vt 0.010131 0.657588
vt 0.024234 0.443932
vt 0.024892 0.658463
vt 0.040902 0.443881
vt 0.041560 0.658412
vt 0.055657 0.442915
vt 0.056315 0.657446
vt 0.155992 0.442330
vt 0.156651 0.656861
vt 0.141890 0.655986
vt 0.141231 0.441454
vt 0.125222 0.656037
vt 0.124564 0.441505
vt 0.110467 0.657003
vt 0.109809 0.442472
vt 0.811418 0.276011
vt 0.812038 0.478130
vt 0.797272 0.475438
vt 0.796652 0.273319
vt 0.765855 0.478272
vt 0.765235 0.276153
vt 0.779984 0.273370
vt 0.780604 0.475489
vt 0.343128 0.452665
vt 0.438311 0.441454
vt 0.437213 0.914310
vt 0.433108 0.914793
vt 0.631204 0.533857
vt 0.719155 0.568192
vt 0.451161 0.942529
vt 0.447367 0.941049
vt 0.497890 0.462202
vt 0.438686 0.478272
vt 0.438311 0.006060
vt 0.440864 0.005367
vt 0.438311 0.478272
vt 0.529849 0.501405
vt 0.442996 0.939649
vt 0.439048 0.938651
vt 0.807107 0.533857
vt 0.990944 0.941049
vt 0.987150 0.942529
vt 0.908462 0.501405
vt 0.995315 0.939649
vt 0.765235 0.337759
vt 0.682285 0.382857
vt 0.448817 0.001945
vt 0.452395 0.000000
vt 0.152497 0.658625
vt 0.155546 0.662056
vt 0.156651 0.666511
vt 0.155558 0.670969
vt 0.148203 0.657003
vt 0.152520 0.674409
vt 0.143648 0.657563
vt 0.148230 0.676043
vt 0.139874 0.660175
vt 0.137747 0.664243
vt 0.143673 0.675496
vt 0.137753 0.668833
vt 0.139892 0.672894
vt 1.000000 0.478272
vt 0.999263 0.938651
vt 0.585803 0.427767
vt 0.444656 0.003882
vn 0.015720 -0.997840 -0.063780
vn 0.043559 -0.997840 -0.049168
vn 0.061420 -0.997840 -0.023293
vn 0.065209 -0.997840 0.007918
vn 0.054061 -0.997840 0.037315
vn 0.030527 -0.997840 0.058164
vn 0.000000 -0.997840 0.065688
vn -0.030527 -0.997840 0.058164
vn -0.054060 -0.997840 0.037315
vn -0.065209 -0.997840 0.007918
vn -0.061420 -0.997840 -0.023293
vn -0.214972 0.439423 -0.872178
vn -0.015720 -0.997840 -0.063780
vn -0.043559 -0.997840 -0.049168
vn 0.000000 -1.000000 -0.000000
vn 0.239316 0.000000 -0.970942
vn 0.663123 0.000000 -0.748511
vn 0.935016 0.000000 -0.354605
vn 0.992709 0.000000 0.120537
vn 0.822984 0.000000 0.568065
vn 0.464723 0.000000 0.885456
vn -0.000000 0.000000 1.000000
vn -0.464723 0.000000 0.885456
vn -0.822984 0.000000 0.568065
vn -0.992709 0.000000 0.120537
vn -0.935016 0.000000 -0.354605
vn -0.239315 0.000000 -0.970942
vn -0.663122 0.000000 -0.748511
vn -0.839906 0.439423 -0.318535
vn 0.214972 0.439423 -0.872178
vn 0.891731 0.439423 0.108276
vn 0.839906 0.439423 -0.318535
vn -0.891731 0.439423 0.108276
vn -0.739270 0.439423 0.510281
vn 0.000000 0.439423 0.898280
vn 0.595670 0.439423 -0.672372
vn -0.000000 1.000000 0.000000
vn -0.417451 0.439423 0.795388
vn 0.417452 0.439423 0.795387
vn 0.739270 0.439423 0.510281
vn -0.595670 0.439423 -0.672373
usemtl tree
s off
f 27/1/1 2/2/1 4/3/1
f 27/1/1 4/3/1 28/4/1
f 28/4/2 4/3/2 6/5/2
f 28/4/2 6/5/2 29/6/2
f 29/6/3 6/5/3 8/7/3
f 29/6/3 8/7/3 30/8/3
f 30/8/4 8/7/4 10/9/4
f 30/8/4 10/9/4 31/10/4
f 31/10/5 10/9/5 12/11/5
f 31/10/5 12/11/5 32/12/5
f 32/12/6 12/11/6 14/13/6
f 32/12/6 14/13/6 33/14/6
f 33/14/7 14/13/7 16/15/7
f 33/14/7 16/15/7 34/16/7
f 34/16/8 16/15/8 18/17/8
f 34/16/8 18/17/8 35/18/8
f 35/18/9 18/17/9 20/19/9
f 35/18/9 20/19/9 36/20/9
f 36/20/10 20/19/10 22/21/10
f 36/20/10 22/21/10 37/22/10
f 37/22/11 22/21/11 24/23/11
f 37/22/11 24/23/11 38/24/11
f 2/25/12 26/26/12 48/27/12
f 2/25/12 48/27/12 52/28/12
f 39/29/13 26/30/13 2/2/13
f 39/29/13 2/2/13 27/1/13
f 38/24/14 24/23/14 26/30/14
f 38/24/14 26/30/14 39/29/14
f 1/31/15 3/32/15 25/33/15
f 3/32/15 23/34/15 25/33/15
f 3/32/15 5/35/15 23/34/15
f 5/35/15 21/36/15 23/34/15
f 5/35/15 7/37/15 21/36/15
f 7/37/15 19/38/15 21/36/15
f 7/37/15 9/39/15 19/38/15
f 9/39/15 11/40/15 19/38/15
f 11/40/15 17/41/15 19/38/15
f 11/40/15 13/42/15 17/41/15
f 13/42/15 15/43/15 17/41/15
f 1/44/16 27/45/16 28/46/16
f 1/44/16 28/46/16 3/47/16
f 3/47/17 28/46/17 29/48/17
f 3/47/17 29/48/17 5/49/17
f 5/49/18 29/48/18 30/50/18
f 5/49/18 30/50/18 7/51/18
f 7/52/19 30/53/19 31/54/19
f 7/52/19 31/54/19 9/55/19
f 9/55/20 31/54/20 32/56/20
f 9/55/20 32/56/20 11/57/20
f 11/57/21 32/56/21 33/58/21
f 11/57/21 33/58/21 13/59/21
f 13/59/22 33/58/22 34/60/22
f 13/59/22 34/60/22 15/61/22
f 15/62/23 34/63/23 35/64/23
f 15/62/23 35/64/23 17/65/23
f 17/65/24 35/64/24 36/66/24
f 17/65/24 36/66/24 19/67/24
f 19/67/25 36/66/25 37/68/25
f 19/67/25 37/68/25 21/69/25
f 21/70/26 37/71/26 38/72/26
f 21/70/26 38/72/26 23/73/26
f 27/74/27 1/75/27 25/76/27
f 27/74/27 25/76/27 39/77/27
f 23/73/28 38/72/28 39/77/28
f 23/73/28 39/77/28 25/76/28
f 24/78/29 22/79/29 41/80/29
f 24/78/29 41/80/29 40/81/29
f 4/82/30 2/83/30 52/84/30
f 4/82/30 52/84/30 51/85/30
f 10/86/31 8/87/31 49/88/31
f 10/86/31 49/88/31 47/89/31
f 8/90/32 6/91/32 50/92/32
f 8/90/32 50/92/32 49/93/32
f 22/83/33 20/94/33 42/95/33
f 22/83/33 42/95/33 41/96/33
f 20/94/34 18/97/34 43/98/34
f 20/94/34 43/98/34 42/95/34
f 16/99/35 14/100/35 45/101/35
f 16/99/35 45/101/35 44/102/35
f 6/91/36 4/82/36 51/85/36
f 6/91/36 51/85/36 50/92/36
f 51/103/37 52/104/37 48/105/37
f 51/103/37 48/105/37 40/106/37
f 51/103/37 40/106/37 50/107/37
f 40/106/37 41/108/37 50/107/37
f 41/108/37 49/109/37 50/107/37
f 41/108/37 42/110/37 49/109/37
f 42/110/37 47/111/37 49/109/37
f 42/110/37 46/112/37 47/111/37
f 42/110/37 43/113/37 46/112/37
f 43/113/37 45/114/37 46/112/37
f 43/113/37 44/115/37 45/114/37
f 18/97/38 16/116/38 44/117/38
f 18/97/38 44/117/38 43/98/38
f 14/100/39 12/118/39 46/119/39
f 14/100/39 46/119/39 45/101/39
f 12/118/40 10/86/40 47/89/40
f 12/118/40 47/89/40 46/119/40
f 26/26/41 24/78/41 40/81/41
f 26/26/41 40/81/41 48/27/41
