# Blender v2.74 (sub 0) OBJ File: 'tree.blend'
# www.blender.org
mtllib treee.mtl
o Cylinder
v 0.000000 0.300000 -0.500000
v 0.000000 1.797300 1.500000
v 0.150000 0.259808 -0.500000
v 0.898650 1.556508 1.500000
v 0.259808 0.150000 -0.500000
v 1.556508 0.898650 1.500000
v 0.300000 -0.000000 -0.500000
v 1.797300 0.000000 1.500000
v 0.259808 -0.150000 -0.500000
v 1.556508 -0.898650 1.500000
v 0.150000 -0.259808 -0.500000
v 0.898650 -1.556507 1.500000
v 0.000000 -0.300000 -0.500000
v 0.000000 -1.797300 1.500000
v -0.150000 -0.259808 -0.500000
v -0.898649 -1.556507 1.500000
v -0.259808 -0.150000 -0.500000
v -1.556507 -0.898650 1.500000
v -0.300000 -0.000000 -0.500000
v -1.797300 -0.000001 1.500000
v -0.259808 0.150000 -0.500000
v -1.556508 0.898649 1.500000
v -0.150000 0.259808 -0.500000
v -0.898651 1.556507 1.500000
v 0.000000 0.300000 1.431201
v 0.150000 0.259808 1.431201
v 0.259808 0.150000 1.431201
v 0.300000 -0.000000 1.431201
v 0.259808 -0.150000 1.431201
v 0.150000 -0.259808 1.431201
v 0.000000 -0.300000 1.431201
v -0.150000 -0.259808 1.431201
v -0.259808 -0.150000 1.431201
v -0.300000 -0.000000 1.431201
v -0.259808 0.150000 1.431201
v -0.150000 0.259808 1.431201
v 0.072349 0.125311 3.992412
v 0.000000 0.144697 3.992412
v 0.125311 0.072349 3.992412
v 0.144697 0.000000 3.992412
v 0.125311 -0.072349 3.992412
v 0.072349 -0.125311 3.992412
v 0.000000 -0.144697 3.992412
v -0.072349 -0.125311 3.992412
v -0.125311 -0.072349 3.992412
v -0.144697 -0.000000 3.992412
v -0.125311 0.072349 3.992412
v -0.072349 0.125311 3.992412
vt 0.414718 0.321870
vt 0.359156 0.439683
vt 0.232696 0.284870
vt 0.262920 0.507702
vt 0.216633 0.296223
vt 0.151797 0.507702
vt 0.055562 0.439683
vt 0.182021 0.284870
vt 0.000000 0.321870
vt 0.172747 0.265205
vt 0.000000 0.185832
vt 0.055562 0.068019
vt 0.182021 0.222833
vt 0.151797 0.000000
vt 0.198085 0.211479
vt 0.262920 0.000000
vt 0.216633 0.211479
vt 0.359156 0.068019
vt 0.232696 0.222833
vt 0.597993 0.016162
vt 0.681591 0.438446
vt 0.673291 0.442531
vt 0.414718 0.185832
vt 0.241971 0.265205
vt 0.241971 0.242498
vt 0.344995 0.862011
vt 0.395671 0.799974
vt 0.379607 0.873365
vt 0.768987 1.000000
vt 0.752924 0.995003
vt 0.752924 0.741444
vt 0.734376 0.995003
vt 0.734376 0.741444
vt 0.319658 0.786927
vt 0.303594 0.788621
vt 0.303594 0.509396
vt 0.338206 0.786927
vt 0.319658 0.507702
vt 0.354270 0.788621
vt 0.338206 0.507702
vt 0.370333 0.786927
vt 0.354270 0.509396
vt 0.388881 0.786927
vt 0.370333 0.507702
vt 0.404945 0.788621
vt 0.388881 0.507702
vt 0.734376 0.739749
vt 0.718312 0.741444
vt 0.718312 0.462219
vt 0.752924 0.739749
vt 0.734376 0.460525
vt 0.768987 0.741444
vt 0.752924 0.460525
vt 0.718312 1.000000
vt 0.718312 0.746441
vt 0.666836 0.448305
vt 0.678772 0.459224
vt 0.696406 0.000000
vt 0.689515 0.437145
vt 0.303594 0.893565
vt 0.207359 0.903714
vt 0.156270 0.508519
vt 0.096236 0.903714
vt 0.147324 0.508519
vt 0.000000 0.893565
vt 0.139576 0.507702
vt 0.414718 0.470674
vt 0.510953 0.460525
vt 0.562042 0.855720
vt 0.622077 0.460525
vt 0.570988 0.855720
vt 0.718312 0.470674
vt 0.578736 0.856537
vt 0.903764 0.396012
vt 0.852676 0.000817
vt 0.860424 0.000000
vt 0.792641 0.396012
vt 0.843730 0.000817
vt 0.696406 0.385863
vt 0.835982 0.000000
vt 0.494888 0.066901
vt 0.198085 0.296223
vt 0.172747 0.242498
vt 0.335721 0.842347
vt 0.335721 0.819639
vt 0.361059 0.873365
vt 0.404945 0.842347
vt 0.395670 0.862011
vt 0.404945 0.819639
vt 0.361059 0.788621
vt 0.379607 0.788621
vt 0.344995 0.799974
vt 0.768987 0.746441
vt 0.404945 0.509396
vt 0.768987 0.462219
vt 0.665427 0.458694
vt 0.663958 0.454221
vt 0.670849 0.460525
vt 0.693527 0.449365
vt 0.687073 0.455139
vt 0.694937 0.438976
vt 0.696406 0.443449
vt 0.164018 0.507702
vt 0.554294 0.856537
vt 1.000000 0.385863
vt 0.414718 0.138621
vn 0.012300 0.045900 -0.998900
vn 0.033600 0.033600 -0.998900
vn 0.045900 0.012300 -0.998900
vn 0.045900 -0.012300 -0.998900
vn 0.033600 -0.033600 -0.998900
vn 0.012300 -0.045900 -0.998900
vn -0.012300 -0.045900 -0.998900
vn -0.033600 -0.033600 -0.998900
vn -0.045900 -0.012300 -0.998900
vn -0.045900 0.012300 -0.998900
vn -0.218000 0.813400 0.539300
vn -0.012300 0.045900 -0.998900
vn -0.033600 0.033600 -0.998900
vn -0.000000 0.000000 -1.000000
vn -0.707100 0.707100 0.000000
vn -0.258800 0.965900 0.000000
vn -0.965900 0.258800 0.000000
vn -0.965900 -0.258800 0.000000
vn -0.707100 -0.707100 0.000000
vn -0.258800 -0.965900 0.000000
vn 0.258800 -0.965900 0.000000
vn 0.707100 -0.707100 0.000000
vn 0.965900 -0.258800 0.000000
vn 0.965900 0.258800 0.000000
vn 0.707100 0.707100 0.000000
vn 0.258800 0.965900 0.000000
vn 0.000000 0.000000 1.000000
vn -0.595500 0.595500 0.539300
vn -0.813400 0.217900 0.539300
vn -0.813400 -0.218000 0.539300
vn -0.595500 -0.595500 0.539300
vn -0.218000 -0.813400 0.539300
vn 0.218000 -0.813400 0.539300
vn 0.595500 -0.595500 0.539300
vn 0.813400 -0.218000 0.539300
vn 0.813400 0.217900 0.539300
vn 0.595500 0.595500 0.539300
vn 0.218000 0.813400 0.539300
vn -0.813400 0.218000 0.539300
vn 0.595400 -0.595500 0.539300
vn 0.813400 0.218000 0.539300
usemtl tree
s off
f 2/1/1 4/2/1 26/3/1
f 4/2/2 6/4/2 27/5/2
f 27/5/3 6/4/3 8/6/3
f 8/6/4 10/7/4 29/8/4
f 29/8/5 10/7/5 12/9/5
f 30/10/6 12/9/6 14/11/6
f 14/11/7 16/12/7 32/13/7
f 16/12/8 18/14/8 33/15/8
f 18/14/9 20/16/9 34/17/9
f 20/16/10 22/18/10 35/19/10
f 24/20/11 48/21/11 38/22/11
f 24/23/12 2/1/12 25/24/12
f 22/18/13 24/23/13 36/25/13
f 21/26/14 9/27/14 17/28/14
f 35/29/15 36/30/15 23/31/15
f 36/30/16 25/32/16 1/33/16
f 34/34/17 35/35/17 21/36/17
f 33/37/18 34/34/18 19/38/18
f 32/39/19 33/37/19 17/40/19
f 31/41/20 32/39/20 15/42/20
f 30/43/21 31/41/21 13/44/21
f 29/45/22 30/43/22 11/46/22
f 28/47/23 29/48/23 9/49/23
f 27/50/24 28/47/24 7/51/24
f 26/52/25 27/50/25 5/53/25
f 25/32/26 26/54/26 3/55/26
f 37/56/27 48/21/27 42/57/27
f 24/20/28 22/58/28 47/59/28
f 22/60/29 20/61/29 46/62/29
f 18/63/30 45/64/30 46/62/30
f 18/63/31 16/65/31 44/66/31
f 16/67/32 14/68/32 43/69/32
f 12/70/33 42/71/33 43/69/33
f 12/70/34 10/72/34 41/73/34
f 8/74/35 40/75/35 41/76/35
f 6/77/36 39/78/36 40/75/36
f 4/79/37 37/80/37 39/78/37
f 2/81/38 38/22/38 37/56/38
f 25/24/1 2/1/1 26/3/1
f 26/3/2 4/2/2 27/5/2
f 28/82/3 27/5/3 8/6/3
f 28/82/4 8/6/4 29/8/4
f 30/10/5 29/8/5 12/9/5
f 31/83/6 30/10/6 14/11/6
f 31/83/7 14/11/7 32/13/7
f 32/13/8 16/12/8 33/15/8
f 33/15/9 18/14/9 34/17/9
f 34/17/10 20/16/10 35/19/10
f 2/81/11 24/20/11 38/22/11
f 36/25/12 24/23/12 25/24/12
f 35/19/13 22/18/13 36/25/13
f 21/26/14 23/84/14 1/85/14
f 17/28/14 19/86/14 21/26/14
f 13/87/14 15/88/14 17/28/14
f 9/27/14 11/89/14 13/87/14
f 5/90/14 7/91/14 9/27/14
f 9/27/14 3/92/14 5/90/14
f 9/27/14 21/26/14 1/85/14
f 9/27/14 13/87/14 17/28/14
f 1/85/14 3/92/14 9/27/14
f 21/93/15 35/29/15 23/31/15
f 23/31/16 36/30/16 1/33/16
f 19/38/17 34/34/17 21/36/17
f 17/40/18 33/37/18 19/38/18
f 15/42/19 32/39/19 17/40/19
f 13/44/20 31/41/20 15/42/20
f 11/46/21 30/43/21 13/44/21
f 9/94/22 29/45/22 11/46/22
f 7/51/23 28/47/23 9/49/23
f 5/53/24 27/50/24 7/51/24
f 3/95/25 26/52/25 5/53/25
f 1/33/26 25/32/26 3/55/26
f 40/96/27 39/97/27 37/56/27
f 42/57/27 41/98/27 40/96/27
f 44/99/27 43/100/27 42/57/27
f 46/101/27 45/102/27 44/99/27
f 48/21/27 47/59/27 46/101/27
f 37/56/27 38/22/27 48/21/27
f 42/57/27 40/96/27 37/56/27
f 46/101/27 44/99/27 42/57/27
f 42/57/27 48/21/27 46/101/27
f 48/21/28 24/20/28 47/59/28
f 47/103/39 22/60/39 46/62/39
f 20/61/30 18/63/30 46/62/30
f 45/64/31 18/63/31 44/66/31
f 44/104/32 16/67/32 43/69/32
f 14/68/33 12/70/33 43/69/33
f 42/71/40 12/70/40 41/73/40
f 10/105/35 8/74/35 41/76/35
f 8/74/41 6/77/41 40/75/41
f 6/77/37 4/79/37 39/78/37
f 4/106/38 2/81/38 37/56/38
